<svg width="20" height="20" viewBox="0 0 20 20" fill="none" xmlns="http://www.w3.org/2000/svg">
<g clip-path="url(#clip0_4_2641)">
<path d="M0.585938 8.49487H0V13.636C0.770703 13.6843 1.4898 13.9257 2.10938 14.3125V8.49487H0.585938Z" fill="#343A3F"/>
<path d="M16.3016 2.12231H3.69844C1.6591 2.12231 0 3.78142 0 5.82075V7.3231H0.585938H3.28125H7.62703V6.23587H12.373V7.3231H16.7188H19.4141H20V5.82075C20 3.78142 18.3409 2.12231 16.3016 2.12231Z" fill="#343A3F"/>
<path d="M12.373 8.49487V9.1444C12.373 9.35714 12.3444 9.56323 12.2916 9.75956H16.7187V8.49487H12.373Z" fill="#343A3F"/>
<path d="M19.4141 8.49487H17.8906V14.3125C18.5102 13.9257 19.2293 13.6843 20 13.636V8.49487H19.4141Z" fill="#343A3F"/>
<path d="M11.5586 10.9315C11.1414 11.2959 10.5962 11.5175 10 11.5175C9.40379 11.5175 8.85863 11.2959 8.44137 10.9315H3.28125V15.3637C3.83305 16.0652 4.18246 16.9328 4.2416 17.8778H15.7584C15.8175 16.9327 16.167 16.0652 16.7188 15.3637V10.9315H11.5586Z" fill="#343A3F"/>
<path d="M16.934 17.8778H20V14.8118C18.3725 14.9497 17.0719 16.2502 16.934 17.8778Z" fill="#343A3F"/>
<path d="M0 14.8118V17.8778H3.06602C2.92813 16.2502 1.62754 14.9497 0 14.8118Z" fill="#343A3F"/>
<path d="M7.62703 9.1444V8.49487H3.28125V9.75956H7.70836C7.65563 9.56323 7.62703 9.35714 7.62703 9.1444Z" fill="#343A3F"/>
<path d="M8.79892 7.40771V9.14447C8.79892 9.80674 9.33775 10.3456 10 10.3456C10.6623 10.3456 11.2011 9.80678 11.2011 9.14447V7.40771H8.79892Z" fill="#343A3F"/>
</g>
<defs>
<clipPath id="clip0_4_2641">
<rect width="20" height="20" fill="white"/>
</clipPath>
</defs>
</svg>
