<svg width="16" height="16" viewBox="0 0 16 16" fill="none" xmlns="http://www.w3.org/2000/svg">
<path d="M8.00006 1C4.1405 1 1 4.1204 1 8.00006C1 11.869 4.13079 15.0001 8.00006 15.0001C11.8751 15.0001 15.0001 11.8627 15.0001 8.00006C15.0002 4.12357 11.8615 1 8.00006 1ZM7.19237 2.64532C6.4179 3.14769 5.87638 3.53335 5.75645 3.96156C5.54705 4.70942 6.87832 5.2534 7.24725 5.58096C7.91666 6.17525 7.60901 7.64699 6.909 8.30284C6.20899 8.95866 5.94879 9.62389 6.02568 10.124C6.12609 10.7773 6.86621 11.8157 7.26316 12.4601C7.66012 13.1044 7.23721 13.2502 6.6838 12.9211C6.27238 12.6764 4.37877 12.2149 3.80334 11.7968C3.22791 11.3787 3.04766 9.94608 3.22945 9.35036C3.41123 8.75465 3.62503 7.16812 2.71748 6.6436C2.48107 6.50696 2.30623 6.34416 2.17894 6.16677C2.98524 3.61232 5.42263 1.78992 8.24717 1.90285C7.84958 2.19447 7.45832 2.47281 7.19237 2.64532ZM13.1754 9.13683C12.3962 9.05551 11.4916 8.93148 11.3206 8.83766C10.6072 8.44631 10.842 7.91032 11.1375 7.13251C11.433 6.35474 9.94846 5.67406 9.94846 4.73933C9.94846 3.82577 10.5331 3.21974 11.2263 2.82226C12.9522 3.90151 14.1027 5.81879 14.1027 8.00006C14.1027 8.87146 13.9188 9.70056 13.5883 10.4512C13.557 9.79252 13.6208 9.18332 13.1754 9.13683Z" fill="#343A3F" fill-opacity="0.5"/>
</svg>
