<svg width="20" height="20" viewBox="0 0 20 20" fill="none" xmlns="http://www.w3.org/2000/svg">
<path d="M14.1996 2.33337C13.3398 2.34675 12.4987 2.58677 11.7613 3.02921C11.0239 3.47164 10.4164 4.10082 9.99992 4.8532C9.58349 4.10082 8.97591 3.47164 8.23852 3.02921C7.50113 2.58677 6.66005 2.34675 5.80021 2.33337C4.42953 2.39293 3.13813 2.99254 2.20815 4.00122C1.27816 5.0099 0.785185 6.34564 0.836918 7.71664C0.836918 11.1887 4.49143 14.9806 7.55645 17.5516C8.24079 18.1267 9.10604 18.442 9.99992 18.442C10.8938 18.442 11.7591 18.1267 12.4434 17.5516C15.5084 14.9806 19.1629 11.1887 19.1629 7.71664C19.2147 6.34564 18.7217 5.0099 17.7917 4.00122C16.8617 2.99254 15.5703 2.39293 14.1996 2.33337Z" fill="#343A3F"/>
</svg>
