<svg width="20" height="20" viewBox="0 0 20 20" fill="none" xmlns="http://www.w3.org/2000/svg">
<g clip-path="url(#clip0_4_2302)">
<path d="M7.80189 9.31018H6.42258C6.23232 9.31018 6.07775 9.46474 6.07775 9.655V9.99982H8.14672V9.655C8.14672 9.46508 7.99232 9.31018 7.80189 9.31018Z" fill="#343A3F"/>
<path d="M11.595 6.20679H10.9053V8.62054C10.9053 9.7077 10.443 10.6868 9.70737 11.3791H11.595V6.20679Z" fill="#343A3F"/>
<path d="M5.24498 15.3133L6.49044 14.4826L4.98737 13.4806L4.7429 13.555L5.24498 15.3133Z" fill="#343A3F"/>
<path d="M10.5198 12.0687H9.52603V12.8432L10.0567 12.9949L10.5198 12.0687Z" fill="#343A3F"/>
<path d="M10.2157 6.20679H4.00879V8.62054C4.00879 10.3319 5.4009 11.7239 7.11224 11.7239C8.82358 11.7239 10.2157 10.3319 10.2157 8.62054V6.20679ZM5.04327 7.24125C5.04327 7.05099 5.19784 6.89643 5.3881 6.89643C5.57853 6.89643 5.73293 7.05099 5.73293 7.24125C5.73293 7.43151 5.57853 7.58607 5.3881 7.58607C5.19784 7.58607 5.04327 7.43202 5.04327 7.24125ZM8.83638 10.6895H5.3881V9.655C5.3881 9.08473 5.8523 8.62054 6.42258 8.62054H7.80189C8.37217 8.62054 8.83638 9.08473 8.83638 9.655V10.6895ZM8.83638 7.58607C8.64611 7.58607 8.49155 7.43151 8.49155 7.24125C8.49155 7.05099 8.64611 6.89643 8.83638 6.89643C9.0268 6.89643 9.1812 7.05099 9.1812 7.24125C9.1812 7.43202 9.0268 7.58607 8.83638 7.58607Z" fill="#343A3F"/>
<path d="M12.9395 0.344849H12.6295C11.7967 0.344849 11.1001 0.938353 10.9402 1.72414H11.2502C12.0829 1.72414 12.7795 1.13097 12.9395 0.344849Z" fill="#343A3F"/>
<path d="M12.2847 3.79309H11.9646L1.93983 4.79506V5.5172H12.2847V3.79309Z" fill="#343A3F"/>
<path d="M9.1812 2.75857C9.1812 2.1883 9.6454 1.72411 10.2157 1.72411C10.2249 1.72411 10.2337 1.72647 10.243 1.7268C10.2436 1.72108 10.2446 1.71552 10.2457 1.70963C9.62672 0.654791 8.4998 0 7.27084 0C5.85045 0 4.59119 0.852457 4.06368 2.1713C3.8064 2.81414 3.47185 3.42229 3.07465 3.98852L9.37702 3.35965C9.25495 3.18994 9.1812 2.98335 9.1812 2.75857Z" fill="#343A3F"/>
<path d="M10.5605 2.75852C10.5605 2.94894 10.4061 3.10334 10.2157 3.10334C10.0253 3.10334 9.87086 2.94894 9.87086 2.75852C9.87086 2.56809 10.0253 2.4137 10.2157 2.4137C10.4061 2.4137 10.5605 2.56809 10.5605 2.75852Z" fill="#343A3F"/>
<path d="M7.73404 14.4825L8.97949 15.3132L9.4836 13.5483L9.2398 13.4786L7.73404 14.4825Z" fill="#343A3F"/>
<path d="M11.595 12.0687H11.2909L10.7316 13.1877L11.267 13.3404L11.3512 13.0315L13.3925 13.5418L13.2698 14.0317C13.5663 14.2269 13.8136 14.4791 13.995 14.7731L14.9833 12.7962L12.2581 11.5574C12.1787 11.8512 11.9129 12.0687 11.595 12.0687Z" fill="#343A3F"/>
<path d="M13.0785 14.7504C12.7509 15.9348 12.2511 17.0483 11.595 18.0652V20H13.664V16.0431C13.664 15.5377 13.4461 15.0725 13.0785 14.7504Z" fill="#343A3F"/>
<path d="M10.9053 19.9996V19.0248C10.6368 19.3627 10.3543 19.6907 10.0488 20H10.9053V19.9996Z" fill="#343A3F"/>
<path d="M12.5561 14.0439L11.8388 13.8646L11.7984 14.013C11.1887 16.2481 9.95605 18.2486 8.23394 19.7987L8.01051 19.9997H9.04431C10.7461 18.4786 11.9398 16.509 12.4943 14.2914L12.5561 14.0439Z" fill="#343A3F"/>
<path d="M1.78358 14.4532C1.05217 14.6752 0.560516 15.3383 0.560516 16.1032V19.9999H2.62948V17.3742C2.62948 16.3389 2.45943 15.3241 2.12403 14.3505L1.78358 14.4532Z" fill="#343A3F"/>
<path d="M11.0791 14.0042L10.1466 13.7377L9.38291 16.4107L7.45706 15.1271V19.5703L7.77259 19.2863C9.35159 17.8653 10.4888 16.0408 11.0791 14.0042Z" fill="#343A3F"/>
<path d="M4.08254 13.7554L2.78354 14.1499C3.13847 15.1884 3.31913 16.2705 3.31913 17.3738V19.9997H6.76741V15.1271L4.84156 16.4107L4.08254 13.7554Z" fill="#343A3F"/>
<path d="M3.31913 8.62054V6.20679H2.62948V11.3791H4.51711C3.78149 10.6871 3.31913 9.7077 3.31913 8.62054Z" fill="#343A3F"/>
<path d="M8.83638 11.995C8.31846 12.2609 7.7332 12.4136 7.11224 12.4136C6.49128 12.4136 5.90601 12.2605 5.3881 11.995V12.9187L7.11224 14.068L8.83638 12.9187V11.995Z" fill="#343A3F"/>
<path d="M17.8029 7.1844L17.0681 5.69853L15.8122 7.87303L16.1912 9.2865L15.1126 11.1544L12.996 10.1778L14.2361 8.02995L15.6491 7.65129L16.9046 5.47645L15.2505 5.58337L14.5161 4.09717L13.2602 6.272L13.6389 7.68479L12.367 9.88741L12.2847 9.84919V10.8123L15.573 12.3071L15.9553 11.5433L15.7415 11.4447L16.7888 9.63132L18.2016 9.25232L19.4573 7.07782L17.8029 7.1844Z" fill="#343A3F"/>
</g>
<defs>
<clipPath id="clip0_4_2302">
<rect width="20" height="20" fill="white"/>
</clipPath>
</defs>
</svg>
